{"asset":{"version":"2.0","generator":"THREE.JS GLTFExporter"},"scenes":[{"nodes":[0],"name":"AuxScene"}],"scene":0,"nodes":[{"mesh":0}],"meshes":[{"primitives":[{"mode":4,"attributes":{"POSITION":0,"NORMAL":1},"material":0}]}],"materials":[{"pbrMetallicRoughness":{"baseColorFactor":[0.5019607843137255,0.5019607843137255,0.5019607843137255,1],"metallicFactor":0,"roughnessFactor":1}}],"accessors":[{"bufferView":0,"componentType":5126,"count":816,"max":[13.559001922607422,20.600000381469727,4.204338073730469],"min":[-37.840999603271484,0.10000000149011612,-26.395662307739258],"type":"VEC3"},{"bufferView":1,"componentType":5126,"count":816,"max":[0.8339080214500427,1,0.9915619492530823],"min":[-0.9805805087089539,0.05264923349022865,-0.894428014755249],"type":"VEC3"}],"bufferViews":[{"buffer":0,"byteOffset":0,"byteLength":9792,"byteStride":12,"target":34962},{"buffer":0,"byteOffset":9792,"byteLength":9792,"byteStride":12,"target":34962}],"buffers":[{"byteLength":19584,"uri":"data:application/octet-stream;base64,"}]}