{
    "asset" : {
        "generator" : "Khronos glTF Blender I/O v1.4.40",
        "version" : "2.0"
    },
    "scene" : 0,
    "scenes" : [
        {
            "name" : "Scene",
            "nodes" : [
                6
            ]
        }
    ],
    "nodes" : [
        {
            "mesh" : 0,
            "name" : "Mesh_0"
        },
        {
            "mesh" : 1,
            "name" : "Mesh_1"
        },
        {
            "mesh" : 2,
            "name" : "Mesh_2"
        },
        {
            "mesh" : 3,
            "name" : "Mesh_3"
        },
        {
            "children" : [
                0,
                1,
                2,
                3
            ],
            "name" : "33ef65efb51b435aa764261c6485ab82.obj.cleaner.materialmerger.gle"
        },
        {
            "children" : [
                4
            ],
            "name" : "RootNode (model correction matrix)"
        },
        {
            "children" : [
                5
            ],
            "name" : "RootNode (gltf orientation matrix)",
            "rotation" : [
                -0.7071068286895752,
                0,
                0,
                0.7071068286895752
            ],
            "translation" : [
                0,
                -0.23712271451950073,
                0
            ]
        }
    ],
    "materials" : [
        {
            "doubleSided" : true,
            "name" : "Back",
            "pbrMetallicRoughness" : {
                "baseColorFactor" : [
                    0.0736778974533081,
                    0.0736778974533081,
                    0.0736778974533081,
                    1
                ],
                "metallicFactor" : 0,
                "roughnessFactor" : 0.6000000238418579
            }
        },
        {
            "doubleSided" : true,
            "name" : "Frame",
            "pbrMetallicRoughness" : {
                "baseColorFactor" : [
                    0.04999488219618797,
                    0.04999488219618797,
                    0.04999488219618797,
                    1
                ],
                "metallicFactor" : 0,
                "roughnessFactor" : 0.6000000238418579
            }
        },
        {
            "doubleSided" : true,
            "name" : "Partour",
            "pbrMetallicRoughness" : {
                "metallicFactor" : 0,
                "roughnessFactor" : 0.6000000238418579
            }
        },
        {
            "doubleSided" : true,
            "name" : "Photo",
            "pbrMetallicRoughness" : {
                "baseColorFactor" : [
                    0.037097107619047165,
                    0.037097107619047165,
                    0.037097107619047165,
                    1
                ],
                "metallicFactor" : 0,
                "roughnessFactor" : 0.6000000238418579
            }
        }
    ],
    "meshes" : [
        {
            "name" : "Mesh_0",
            "primitives" : [
                {
                    "attributes" : {
                        "POSITION" : 0,
                        "NORMAL" : 1,
                        "TEXCOORD_0" : 2
                    },
                    "indices" : 3,
                    "material" : 0
                }
            ]
        },
        {
            "name" : "Mesh_1",
            "primitives" : [
                {
                    "attributes" : {
                        "POSITION" : 4,
                        "NORMAL" : 5,
                        "TEXCOORD_0" : 6
                    },
                    "indices" : 7,
                    "material" : 1
                }
            ]
        },
        {
            "name" : "Mesh_2",
            "primitives" : [
                {
                    "attributes" : {
                        "POSITION" : 8,
                        "NORMAL" : 9,
                        "TEXCOORD_0" : 10
                    },
                    "indices" : 11,
                    "material" : 2
                }
            ]
        },
        {
            "name" : "Mesh_3",
            "primitives" : [
                {
                    "attributes" : {
                        "POSITION" : 12,
                        "NORMAL" : 13,
                        "TEXCOORD_0" : 14
                    },
                    "indices" : 15,
                    "material" : 3
                }
            ]
        }
    ],
    "accessors" : [
        {
            "bufferView" : 0,
            "componentType" : 5126,
            "count" : 4,
            "max" : [
                0.9596930146217346,
                0.042653001844882965,
                1.1893600225448608
            ],
            "min" : [
                -0.9596930146217346,
                0.04265293851494789,
                -0.7272251844406128
            ],
            "type" : "VEC3"
        },
        {
            "bufferView" : 1,
            "componentType" : 5126,
            "count" : 4,
            "type" : "VEC3"
        },
        {
            "bufferView" : 2,
            "componentType" : 5126,
            "count" : 4,
            "type" : "VEC2"
        },
        {
            "bufferView" : 3,
            "componentType" : 5123,
            "count" : 6,
            "type" : "SCALAR"
        },
        {
            "bufferView" : 4,
            "componentType" : 5126,
            "count" : 302,
            "max" : [
                0.9596930146217346,
                0.042653001844882965,
                1.1893600225448608
            ],
            "min" : [
                -0.9596930146217346,
                -0.04265306517481804,
                -0.7272251844406128
            ],
            "type" : "VEC3"
        },
        {
            "bufferView" : 5,
            "componentType" : 5126,
            "count" : 302,
            "type" : "VEC3"
        },
        {
            "bufferView" : 6,
            "componentType" : 5126,
            "count" : 302,
            "type" : "VEC2"
        },
        {
            "bufferView" : 7,
            "componentType" : 5123,
            "count" : 696,
            "type" : "SCALAR"
        },
        {
            "bufferView" : 8,
            "componentType" : 5126,
            "count" : 42,
            "max" : [
                0.8350139856338501,
                0.027888938784599304,
                1.0646799802780151
            ],
            "min" : [
                -0.8350139856338501,
                0.013123937882483006,
                -0.6025451421737671
            ],
            "type" : "VEC3"
        },
        {
            "bufferView" : 9,
            "componentType" : 5126,
            "count" : 42,
            "type" : "VEC3"
        },
        {
            "bufferView" : 10,
            "componentType" : 5126,
            "count" : 42,
            "type" : "VEC2"
        },
        {
            "bufferView" : 11,
            "componentType" : 5123,
            "count" : 48,
            "type" : "SCALAR"
        },
        {
            "bufferView" : 12,
            "componentType" : 5126,
            "count" : 6,
            "max" : [
                0.5446460247039795,
                0.027888938784599304,
                0.7743160128593445
            ],
            "min" : [
                -0.5446460247039795,
                0.027888000011444092,
                -0.3121812045574188
            ],
            "type" : "VEC3"
        },
        {
            "bufferView" : 13,
            "componentType" : 5126,
            "count" : 6,
            "type" : "VEC3"
        },
        {
            "bufferView" : 14,
            "componentType" : 5126,
            "count" : 6,
            "type" : "VEC2"
        },
        {
            "bufferView" : 15,
            "componentType" : 5123,
            "count" : 6,
            "type" : "SCALAR"
        }
    ],
    "bufferViews" : [
        {
            "buffer" : 0,
            "byteLength" : 48,
            "byteOffset" : 0
        },
        {
            "buffer" : 0,
            "byteLength" : 48,
            "byteOffset" : 48
        },
        {
            "buffer" : 0,
            "byteLength" : 32,
            "byteOffset" : 96
        },
        {
            "buffer" : 0,
            "byteLength" : 12,
            "byteOffset" : 128
        },
        {
            "buffer" : 0,
            "byteLength" : 3624,
            "byteOffset" : 140
        },
        {
            "buffer" : 0,
            "byteLength" : 3624,
            "byteOffset" : 3764
        },
        {
            "buffer" : 0,
            "byteLength" : 2416,
            "byteOffset" : 7388
        },
        {
            "buffer" : 0,
            "byteLength" : 1392,
            "byteOffset" : 9804
        },
        {
            "buffer" : 0,
            "byteLength" : 504,
            "byteOffset" : 11196
        },
        {
            "buffer" : 0,
            "byteLength" : 504,
            "byteOffset" : 11700
        },
        {
            "buffer" : 0,
            "byteLength" : 336,
            "byteOffset" : 12204
        },
        {
            "buffer" : 0,
            "byteLength" : 96,
            "byteOffset" : 12540
        },
        {
            "buffer" : 0,
            "byteLength" : 72,
            "byteOffset" : 12636
        },
        {
            "buffer" : 0,
            "byteLength" : 72,
            "byteOffset" : 12708
        },
        {
            "buffer" : 0,
            "byteLength" : 48,
            "byteOffset" : 12780
        },
        {
            "buffer" : 0,
            "byteLength" : 12,
            "byteOffset" : 12828
        }
    ],
    "buffers" : [
        {
            "byteLength" : 12840,
            "uri" : "frame.bin"
        }
    ]
}
