{
  "accessors": [
    {
      "bufferView": 2,
      "componentType": 5126,
      "count": 25063,
      "max": [
        0.010001722723245621,
        0.072973310947418213,
        0.0098841153085231781
      ],
      "min": [
        -0.0098702497780323029,
        -0.1637868732213974,
        -0.0099877910688519478
      ],
      "type": "VEC3"
    },
    {
      "bufferView": 2,
      "byteOffset": 300756,
      "componentType": 5126,
      "count": 25063,
      "max": [
        1,
        1,
        1
      ],
      "min": [
        -1,
        -1,
        -1
      ],
      "type": "VEC3"
    },
    {
      "bufferView": 1,
      "componentType": 5126,
      "count": 25063,
      "max": [
        0.99990361928939819,
        0.68443030118942261
      ],
      "min": [
        9.6903633675538003e-05,
        9.6491377917118371e-05
      ],
      "type": "VEC2"
    },
    {
      "bufferView": 0,
      "componentType": 5125,
      "count": 141312,
      "max": [
        25062
      ],
      "min": [
        0
      ],
      "type": "SCALAR"
    },
    {
      "bufferView": 2,
      "byteOffset": 601512,
      "componentType": 5126,
      "count": 2882,
      "max": [
        0.00054710422409698367,
        0.082871243357658386,
        0.0013329369248822331
      ],
      "min": [
        -0.0012985379435122013,
        0.07129465788602829,
        -0.00063624413451179862
      ],
      "type": "VEC3"
    },
    {
      "bufferView": 2,
      "byteOffset": 636096,
      "componentType": 5126,
      "count": 2882,
      "max": [
        0.99999189376831055,
        0.99720883369445801,
        0.99951267242431641
      ],
      "min": [
        -0.9999229907989502,
        -0.99381673336029053,
        -0.99970424175262451
      ],
      "type": "VEC3"
    },
    {
      "bufferView": 1,
      "byteOffset": 200504,
      "componentType": 5126,
      "count": 2882,
      "max": [
        0,
        0
      ],
      "min": [
        0,
        0
      ],
      "type": "VEC2"
    },
    {
      "bufferView": 0,
      "byteOffset": 565248,
      "componentType": 5125,
      "count": 17280,
      "max": [
        2881
      ],
      "min": [
        0
      ],
      "type": "SCALAR"
    },
    {
      "bufferView": 2,
      "byteOffset": 670680,
      "componentType": 5126,
      "count": 25309,
      "max": [
        0.010049604810774326,
        0.045383777469396591,
        0.0099273240193724632
      ],
      "min": [
        -0.0097814556211233139,
        -0.10402898490428925,
        -0.0099445795640349388
      ],
      "type": "VEC3"
    },
    {
      "bufferView": 2,
      "byteOffset": 974388,
      "componentType": 5126,
      "count": 25309,
      "max": [
        0.9999997615814209,
        1,
        1
      ],
      "min": [
        -0.99999988079071045,
        -1,
        -1
      ],
      "type": "VEC3"
    },
    {
      "bufferView": 1,
      "byteOffset": 223560,
      "componentType": 5126,
      "count": 25309,
      "max": [
        0.99990075826644897,
        0.71714508533477783
      ],
      "min": [
        0.00029232929227873683,
        9.9342483736108989e-05
      ],
      "type": "VEC2"
    },
    {
      "bufferView": 0,
      "byteOffset": 634368,
      "componentType": 5125,
      "count": 141312,
      "max": [
        25308
      ],
      "min": [
        0
      ],
      "type": "SCALAR"
    },
    {
      "bufferView": 2,
      "byteOffset": 1278096,
      "componentType": 5126,
      "count": 4581,
      "max": [
        0.0015578767051920295,
        0.046394679695367813,
        0.0014724258799105883
      ],
      "min": [
        -0.0048460755497217178,
        0.031941402703523636,
        -0.001181940664537251
      ],
      "type": "VEC3"
    },
    {
      "bufferView": 2,
      "byteOffset": 1333068,
      "componentType": 5126,
      "count": 4581,
      "max": [
        0.99958515167236328,
        0.99910497665405273,
        0.99994635581970215
      ],
      "min": [
        -0.99984097480773926,
        -0.99943625926971436,
        -0.9999774694442749
      ],
      "type": "VEC3"
    },
    {
      "bufferView": 1,
      "byteOffset": 426032,
      "componentType": 5126,
      "count": 4581,
      "max": [
        0.56602782011032104,
        0.95893365144729614
      ],
      "min": [
        0.33330744504928589,
        0.034157201647758484
      ],
      "type": "VEC2"
    },
    {
      "bufferView": 0,
      "byteOffset": 1199616,
      "componentType": 5125,
      "count": 24960,
      "max": [
        4580
      ],
      "min": [
        0
      ],
      "type": "SCALAR"
    },
    {
      "bufferView": 2,
      "byteOffset": 1388040,
      "componentType": 5126,
      "count": 54677,
      "max": [
        0.044881705194711685,
        0.2199999988079071,
        0.044881734997034073
      ],
      "min": [
        -0.044881705194711685,
        -4.4703483581542969e-08,
        -0.044881731271743774
      ],
      "type": "VEC3"
    },
    {
      "bufferView": 2,
      "byteOffset": 2044164,
      "componentType": 5126,
      "count": 54677,
      "max": [
        1,
        1,
        1
      ],
      "min": [
        -1,
        -1,
        -1
      ],
      "type": "VEC3"
    },
    {
      "bufferView": 1,
      "byteOffset": 462680,
      "componentType": 5126,
      "count": 54677,
      "max": [
        0.99989920854568481,
        0.99992412328720093
      ],
      "min": [
        0.00016040267655625939,
        7.6011150667909533e-05
      ],
      "type": "VEC2"
    },
    {
      "bufferView": 0,
      "byteOffset": 1299456,
      "componentType": 5125,
      "count": 302400,
      "max": [
        54676
      ],
      "min": [
        0
      ],
      "type": "SCALAR"
    },
    {
      "bufferView": 2,
      "byteOffset": 2700288,
      "componentType": 5126,
      "count": 7403,
      "max": [
        0.044345177710056305,
        0.00052045285701751709,
        0.044344965368509293
      ],
      "min": [
        -0.04434533417224884,
        -0.00098077952861785889,
        -0.044345535337924957
      ],
      "type": "VEC3"
    },
    {
      "bufferView": 2,
      "byteOffset": 2789124,
      "componentType": 5126,
      "count": 7403,
      "max": [
        1,
        0.00015259638894349337,
        1
      ],
      "min": [
        -1,
        -1,
        -1
      ],
      "type": "VEC3"
    },
    {
      "bufferView": 1,
      "byteOffset": 900096,
      "componentType": 5126,
      "count": 7403,
      "max": [
        0.67420178651809692,
        0.99990791082382202
      ],
      "min": [
        0.00050177145749330521,
        9.2191679868847132e-05
      ],
      "type": "VEC2"
    },
    {
      "bufferView": 0,
      "byteOffset": 2509056,
      "componentType": 5125,
      "count": 39936,
      "max": [
        7402
      ],
      "min": [
        0
      ],
      "type": "SCALAR"
    },
    {
      "bufferView": 2,
      "byteOffset": 2877960,
      "componentType": 5126,
      "count": 54677,
      "max": [
        0.044881701469421387,
        0.19600176811218262,
        0.044881734997034073
      ],
      "min": [
        -0.044881712645292282,
        -7.4505805969238281e-09,
        -0.044881734997034073
      ],
      "type": "VEC3"
    },
    {
      "bufferView": 2,
      "byteOffset": 3534084,
      "componentType": 5126,
      "count": 54677,
      "max": [
        1,
        1,
        1
      ],
      "min": [
        -1,
        -1,
        -1
      ],
      "type": "VEC3"
    },
    {
      "bufferView": 1,
      "byteOffset": 959320,
      "componentType": 5126,
      "count": 54677,
      "max": [
        0.99989920854568481,
        0.99992412328720093
      ],
      "min": [
        0.00016040267655625939,
        7.6011150667909533e-05
      ],
      "type": "VEC2"
    },
    {
      "bufferView": 0,
      "byteOffset": 2668800,
      "componentType": 5125,
      "count": 302400,
      "max": [
        54676
      ],
      "min": [
        0
      ],
      "type": "SCALAR"
    },
    {
      "bufferView": 2,
      "byteOffset": 4190208,
      "componentType": 5126,
      "count": 7403,
      "max": [
        0.044345173984766006,
        0.00036431103944778442,
        0.044344961643218994
      ],
      "min": [
        -0.044345337897539139,
        -0.00068654119968414307,
        -0.044345539063215256
      ],
      "type": "VEC3"
    },
    {
      "bufferView": 2,
      "byteOffset": 4279044,
      "componentType": 5126,
      "count": 7403,
      "max": [
        1,
        3.0519448046106845e-05,
        1
      ],
      "min": [
        -1,
        -1,
        -1
      ],
      "type": "VEC3"
    },
    {
      "bufferView": 1,
      "byteOffset": 1396736,
      "componentType": 5126,
      "count": 7403,
      "max": [
        0.67420178651809692,
        0.99990791082382202
      ],
      "min": [
        0.00050177145749330521,
        9.2191679868847132e-05
      ],
      "type": "VEC2"
    },
    {
      "bufferView": 0,
      "byteOffset": 3878400,
      "componentType": 5125,
      "count": 39936,
      "max": [
        7402
      ],
      "min": [
        0
      ],
      "type": "SCALAR"
    }
  ],
  "asset": {
    "extras": {
      "author": "BLAH.BLAH. (https://sketchfab.com/blahdotblahdot)",
      "license": "CC-BY-NC-4.0 (http://creativecommons.org/licenses/by-nc/4.0/)",
      "source": "https://sketchfab.com/3d-models/hm-home-candlesticks-987988b9420846f9a41ffe7838567948",
      "title": "H&M Home Candlesticks"
    },
    "generator": "Sketchfab-9.64.0",
    "version": "2.0"
  },
  "bufferViews": [
    {
      "buffer": 0,
      "byteLength": 4038144,
      "byteOffset": 0,
      "name": "floatBufferViews",
      "target": 34963
    },
    {
      "buffer": 0,
      "byteLength": 1455960,
      "byteOffset": 4038144,
      "byteStride": 8,
      "name": "floatBufferViews",
      "target": 34962
    },
    {
      "buffer": 0,
      "byteLength": 4367880,
      "byteOffset": 5494104,
      "byteStride": 12,
      "name": "floatBufferViews",
      "target": 34962
    }
  ],
  "buffers": [
    {
      "byteLength": 9861984,
      "uri": "scene.bin"
    }
  ],
  "materials": [
    {
      "doubleSided": true,
      "emissiveFactor": [
        0,
        0,
        0
      ],
      "name": "material",
      "pbrMetallicRoughness": {
        "baseColorFactor": [
          0.80000000000000004,
          0.80000000000000004,
          0.80000000000000004,
          1
        ],
        "metallicFactor": 0,
        "roughnessFactor": 0.38
      }
    },
    {
      "doubleSided": true,
      "emissiveFactor": [
        0,
        0,
        0
      ],
      "name": "Wick",
      "pbrMetallicRoughness": {
        "baseColorFactor": [
          0.77520961796572196,
          0.62101698655539317,
          0.51248281754917524,
          1
        ],
        "metallicFactor": 0,
        "roughnessFactor": 0.91876709430589421
      }
    },
    {
      "doubleSided": true,
      "emissiveFactor": [
        0,
        0,
        0
      ],
      "name": "Wick_Burned",
      "pbrMetallicRoughness": {
        "baseColorFactor": [
          0.0013699005452204192,
          0.0013699005452204192,
          0.0013699005452204192,
          1
        ],
        "metallicFactor": 0,
        "roughnessFactor": 0.93262400000000001
      }
    },
    {
      "doubleSided": true,
      "emissiveFactor": [
        0,
        0,
        0
      ],
      "name": "HM_Candlestick_GOLD",
      "pbrMetallicRoughness": {
        "baseColorFactor": [
          0.615178,
          0.36874600000000002,
          0.100074,
          1
        ],
        "metallicFactor": 0.93616999999999995,
        "roughnessFactor": 0.20000000000000001
      }
    },
    {
      "doubleSided": true,
      "emissiveFactor": [
        0,
        0,
        0
      ],
      "name": "HM_Candlestick_Bottom",
      "pbrMetallicRoughness": {
        "baseColorFactor": [
          0.0020635100000000002,
          0.0020635100000000002,
          0.0020635100000000002,
          1
        ],
        "metallicFactor": 0,
        "roughnessFactor": 0.939716
      }
    }
  ],
  "meshes": [
    {
      "primitives": [
        {
          "attributes": {
            "NORMAL": 1,
            "POSITION": 0,
            "TEXCOORD_0": 2
          },
          "indices": 3,
          "material": 0,
          "mode": 4
        }
      ]
    },
    {
      "primitives": [
        {
          "attributes": {
            "NORMAL": 5,
            "POSITION": 4,
            "TEXCOORD_0": 6
          },
          "indices": 7,
          "material": 1,
          "mode": 4
        }
      ]
    },
    {
      "primitives": [
        {
          "attributes": {
            "NORMAL": 9,
            "POSITION": 8,
            "TEXCOORD_0": 10
          },
          "indices": 11,
          "material": 0,
          "mode": 4
        }
      ]
    },
    {
      "primitives": [
        {
          "attributes": {
            "NORMAL": 13,
            "POSITION": 12,
            "TEXCOORD_0": 14
          },
          "indices": 15,
          "material": 2,
          "mode": 4
        }
      ]
    },
    {
      "primitives": [
        {
          "attributes": {
            "NORMAL": 17,
            "POSITION": 16,
            "TEXCOORD_0": 18
          },
          "indices": 19,
          "material": 3,
          "mode": 4
        }
      ]
    },
    {
      "primitives": [
        {
          "attributes": {
            "NORMAL": 21,
            "POSITION": 20,
            "TEXCOORD_0": 22
          },
          "indices": 23,
          "material": 4,
          "mode": 4
        }
      ]
    },
    {
      "primitives": [
        {
          "attributes": {
            "NORMAL": 25,
            "POSITION": 24,
            "TEXCOORD_0": 26
          },
          "indices": 27,
          "material": 3,
          "mode": 4
        }
      ]
    },
    {
      "primitives": [
        {
          "attributes": {
            "NORMAL": 29,
            "POSITION": 28,
            "TEXCOORD_0": 30
          },
          "indices": 31,
          "material": 4,
          "mode": 4
        }
      ]
    }
  ],
  "nodes": [
    {
      "children": [
        1
      ],
      "name": "RootNode (gltf orientation matrix)",
      "rotation": [
        -0.70710678118654746,
        -0,
        -0,
        0.70710678118654757
      ]
    },
    {
      "children": [
        2
      ],
      "name": "RootNode (model correction matrix)"
    },
    {
      "children": [
        3
      ],
      "name": "root"
    },
    {
      "children": [
        4,
        7,
        10,
        13
      ],
      "matrix": [
        1,
        0,
        0,
        0,
        0,
        2.2204460492503131e-16,
        1,
        0,
        0,
        -1,
        2.2204460492503131e-16,
        0,
        0,
        0,
        0,
        1
      ],
      "name": "GLTF_SceneRootNode"
    },
    {
      "children": [
        5,
        6
      ],
      "matrix": [
        1.0975279808044434,
        0,
        0,
        0,
        0,
        1.0975279808044434,
        0,
        0,
        0,
        0,
        1.0975279808044434,
        0,
        -0.10007219761610031,
        0.37879276275634766,
        5.6893397413659841e-05,
        1
      ],
      "name": "Candle_B.B._0"
    },
    {
      "mesh": 0,
      "name": ""
    },
    {
      "mesh": 1,
      "name": ""
    },
    {
      "children": [
        8,
        9
      ],
      "matrix": [
        1.0975279808044434,
        0,
        0,
        0,
        0,
        1.0975279808044434,
        0,
        0,
        0,
        0,
        1.0975279808044434,
        0,
        0.09985535591840744,
        0.37320685386657715,
        9.4688512035645545e-06,
        1
      ],
      "name": "Burned_Candle_B.B._1"
    },
    {
      "mesh": 2,
      "name": ""
    },
    {
      "mesh": 3,
      "name": ""
    },
    {
      "children": [
        11,
        12
      ],
      "matrix": [
        1,
        0,
        0,
        0,
        0,
        1,
        0,
        0,
        0,
        0,
        1,
        0,
        -0.10000000149011612,
        0,
        0,
        1
      ],
      "name": "HM_Candlestick_Short_B.B._2"
    },
    {
      "mesh": 4,
      "name": ""
    },
    {
      "mesh": 5,
      "name": ""
    },
    {
      "children": [
        14,
        15
      ],
      "matrix": [
        1,
        0,
        0,
        0,
        0,
        1.4285714626312256,
        0,
        0,
        0,
        0,
        1,
        0,
        0.10000000149011612,
        0,
        0,
        1
      ],
      "name": "HM_Candlestick_Tall_B.B._3"
    },
    {
      "mesh": 6,
      "name": ""
    },
    {
      "mesh": 7,
      "name": ""
    }
  ],
  "scene": 0,
  "scenes": [
    {
      "name": "OSG_Scene",
      "nodes": [
        0
      ]
    }
  ]
}

