{
  "accessors": [
    {
      "bufferView": 2,
      "componentType": 5126,
      "count": 45,
      "max": [
        0.90000003576278687,
        0.12999999523162842,
        2.0999999046325684
      ],
      "min": [
        -0.90000003576278687,
        -0.12999999523162842,
        0
      ],
      "type": "VEC3"
    },
    {
      "bufferView": 2,
      "byteOffset": 540,
      "componentType": 5126,
      "count": 45,
      "max": [
        1,
        0,
        1
      ],
      "min": [
        -1,
        -1,
        -1
      ],
      "type": "VEC3"
    },
    {
      "bufferView": 1,
      "componentType": 5126,
      "count": 45,
      "max": [
        0.72000002861022949,
        5.5999999046325684
      ],
      "min": [
        -0.10000000149011612,
        -0.12999999523162842
      ],
      "type": "VEC2"
    },
    {
      "bufferView": 0,
      "componentType": 5125,
      "count": 81,
      "max": [
        44
      ],
      "min": [
        0
      ],
      "type": "SCALAR"
    },
    {
      "bufferView": 2,
      "byteOffset": 1080,
      "componentType": 5126,
      "count": 40,
      "max": [
        0.90000003576278687,
        0.12999999523162842,
        2.0999999046325684
      ],
      "min": [
        -0.90000003576278687,
        0,
        0
      ],
      "type": "VEC3"
    },
    {
      "bufferView": 2,
      "byteOffset": 1560,
      "componentType": 5126,
      "count": 40,
      "max": [
        1,
        1,
        1
      ],
      "min": [
        -1,
        0,
        -1
      ],
      "type": "VEC3"
    },
    {
      "bufferView": 1,
      "byteOffset": 360,
      "componentType": 5126,
      "count": 40,
      "max": [
        0.37000000476837158,
        5.5999999046325684
      ],
      "min": [
        0.12999999523162842,
        0
      ],
      "type": "VEC2"
    },
    {
      "bufferView": 0,
      "byteOffset": 324,
      "componentType": 5125,
      "count": 72,
      "max": [
        39
      ],
      "min": [
        0
      ],
      "type": "SCALAR"
    },
    {
      "bufferView": 2,
      "byteOffset": 2040,
      "componentType": 5126,
      "count": 454,
      "max": [
        0,
        -0.014999999664723873,
        2.005000114440918
      ],
      "min": [
        -0.80500000715255737,
        -0.024999998509883881,
        0
      ],
      "type": "VEC3"
    },
    {
      "bufferView": 2,
      "byteOffset": 7488,
      "componentType": 5126,
      "count": 454,
      "max": [
        0.707111656665802,
        -0.70710188150405884,
        0.70710718631744385
      ],
      "min": [
        -0.70710867643356323,
        -1,
        -0.70710718631744385
      ],
      "type": "VEC3"
    },
    {
      "bufferView": 1,
      "byteOffset": 680,
      "componentType": 5126,
      "count": 454,
      "max": [
        0.16125001013278961,
        10.435000419616699
      ],
      "min": [
        -0.16125001013278961,
        0
      ],
      "type": "VEC2"
    },
    {
      "bufferView": 0,
      "byteOffset": 612,
      "componentType": 5125,
      "count": 816,
      "max": [
        453
      ],
      "min": [
        0
      ],
      "type": "SCALAR"
    },
    {
      "bufferView": 2,
      "byteOffset": 12936,
      "componentType": 5126,
      "count": 482,
      "max": [
        0,
        0.004999999888241291,
        2.005000114440918
      ],
      "min": [
        -0.80500000715255737,
        -0.019999999552965164,
        0
      ],
      "type": "VEC3"
    },
    {
      "bufferView": 2,
      "byteOffset": 18720,
      "componentType": 5126,
      "count": 482,
      "max": [
        1,
        1,
        1
      ],
      "min": [
        -1,
        0,
        -1
      ],
      "type": "VEC3"
    },
    {
      "bufferView": 1,
      "byteOffset": 4312,
      "componentType": 5126,
      "count": 482,
      "max": [
        0.17999999225139618,
        10.435000419616699
      ],
      "min": [
        -0.16125001013278961,
        0
      ],
      "type": "VEC2"
    },
    {
      "bufferView": 0,
      "byteOffset": 3876,
      "componentType": 5125,
      "count": 876,
      "max": [
        481
      ],
      "min": [
        0
      ],
      "type": "SCALAR"
    },
    {
      "bufferView": 2,
      "byteOffset": 24504,
      "componentType": 5126,
      "count": 454,
      "max": [
        0.80500000715255737,
        -0.014999999664723873,
        2.005000114440918
      ],
      "min": [
        0,
        -0.024999998509883881,
        0
      ],
      "type": "VEC3"
    },
    {
      "bufferView": 2,
      "byteOffset": 29952,
      "componentType": 5126,
      "count": 454,
      "max": [
        0.70710867643356323,
        -0.70710188150405884,
        0.70710718631744385
      ],
      "min": [
        -0.707111656665802,
        -1,
        -0.70710718631744385
      ],
      "type": "VEC3"
    },
    {
      "bufferView": 1,
      "byteOffset": 8168,
      "componentType": 5126,
      "count": 454,
      "max": [
        0.16125001013278961,
        10.435000419616699
      ],
      "min": [
        -0.16125001013278961,
        0
      ],
      "type": "VEC2"
    },
    {
      "bufferView": 0,
      "byteOffset": 7380,
      "componentType": 5125,
      "count": 816,
      "max": [
        453
      ],
      "min": [
        0
      ],
      "type": "SCALAR"
    },
    {
      "bufferView": 2,
      "byteOffset": 35400,
      "componentType": 5126,
      "count": 482,
      "max": [
        0.80500000715255737,
        0.004999999888241291,
        2.005000114440918
      ],
      "min": [
        0,
        -0.019999999552965164,
        0
      ],
      "type": "VEC3"
    },
    {
      "bufferView": 2,
      "byteOffset": 41184,
      "componentType": 5126,
      "count": 482,
      "max": [
        1,
        1,
        1
      ],
      "min": [
        -1,
        0,
        -1
      ],
      "type": "VEC3"
    },
    {
      "bufferView": 1,
      "byteOffset": 11800,
      "componentType": 5126,
      "count": 482,
      "max": [
        0.17999999225139618,
        10.435000419616699
      ],
      "min": [
        -0.16125001013278961,
        0
      ],
      "type": "VEC2"
    },
    {
      "bufferView": 0,
      "byteOffset": 10644,
      "componentType": 5125,
      "count": 876,
      "max": [
        481
      ],
      "min": [
        0
      ],
      "type": "SCALAR"
    },
    {
      "bufferView": 2,
      "byteOffset": 46968,
      "componentType": 5126,
      "count": 28834,
      "max": [
        0.018835937604308128,
        0.047712892293930054,
        0.043589845299720764
      ],
      "min": [
        -0.11897246539592743,
        -0.067712880671024323,
        -0.10634375363588333
      ],
      "type": "VEC3"
    },
    {
      "bufferView": 2,
      "byteOffset": 392976,
      "componentType": 5126,
      "count": 28834,
      "max": [
        1,
        1,
        1
      ],
      "min": [
        -1,
        -1,
        -1
      ],
      "type": "VEC3"
    },
    {
      "bufferView": 0,
      "byteOffset": 14148,
      "componentType": 5125,
      "count": 172032,
      "max": [
        28833
      ],
      "min": [
        0
      ],
      "type": "SCALAR"
    }
  ],
  "asset": {
    "extras": {
      "author": "indoeditor7 (https://sketchfab.com/indoeditor7)",
      "license": "CC-BY-4.0 (http://creativecommons.org/licenses/by/4.0/)",
      "source": "https://sketchfab.com/3d-models/simple-double-door-2837dcca0e7b4bcd8d8944895671f0a2",
      "title": "Simple Double Door"
    },
    "generator": "Sketchfab-9.26.0",
    "version": "2.0"
  },
  "bufferViews": [
    {
      "buffer": 0,
      "byteLength": 702276,
      "byteOffset": 0,
      "name": "floatBufferViews",
      "target": 34963
    },
    {
      "buffer": 0,
      "byteLength": 15656,
      "byteOffset": 702276,
      "byteStride": 8,
      "name": "floatBufferViews",
      "target": 34962
    },
    {
      "buffer": 0,
      "byteLength": 738984,
      "byteOffset": 717932,
      "byteStride": 12,
      "name": "floatBufferViews",
      "target": 34962
    }
  ],
  "buffers": [
    {
      "byteLength": 1456916,
      "uri": "scene.bin"
    }
  ],
  "materials": [
    {
      "doubleSided": true,
      "emissiveFactor": [
        0,
        0,
        0
      ],
      "name": "Door_inside",
      "pbrMetallicRoughness": {
        "baseColorFactor": [
          0.80000000000000004,
          0.80000000000000004,
          0.80000000000000004,
          1
        ],
        "metallicFactor": 0,
        "roughnessFactor": 0.82394172574614266
      }
    },
    {
      "doubleSided": true,
      "emissiveFactor": [
        0,
        0,
        0
      ],
      "name": "Door_outside",
      "pbrMetallicRoughness": {
        "baseColorFactor": [
          0.80000000000000004,
          0.80000000000000004,
          0.80000000000000004,
          1
        ],
        "metallicFactor": 0,
        "roughnessFactor": 0.82394172574614266
      }
    },
    {
      "doubleSided": true,
      "emissiveFactor": [
        0,
        0,
        0
      ],
      "name": "Handle_inside",
      "pbrMetallicRoughness": {
        "baseColorFactor": [
          0.80000000000000004,
          0.80000000000000004,
          0.80000000000000004,
          1
        ],
        "metallicFactor": 0,
        "roughnessFactor": 0.82394172574614266
      }
    }
  ],
  "meshes": [
    {
      "name": "Door_Door_inside_0",
      "primitives": [
        {
          "attributes": {
            "NORMAL": 1,
            "POSITION": 0,
            "TEXCOORD_0": 2
          },
          "indices": 3,
          "material": 0,
          "mode": 4
        }
      ]
    },
    {
      "name": "Door_Door_outside_0",
      "primitives": [
        {
          "attributes": {
            "NORMAL": 5,
            "POSITION": 4,
            "TEXCOORD_0": 6
          },
          "indices": 7,
          "material": 1,
          "mode": 4
        }
      ]
    },
    {
      "name": "Panel.001_Door_inside_0",
      "primitives": [
        {
          "attributes": {
            "NORMAL": 9,
            "POSITION": 8,
            "TEXCOORD_0": 10
          },
          "indices": 11,
          "material": 0,
          "mode": 4
        }
      ]
    },
    {
      "name": "Panel.001_Door_outside_0",
      "primitives": [
        {
          "attributes": {
            "NORMAL": 13,
            "POSITION": 12,
            "TEXCOORD_0": 14
          },
          "indices": 15,
          "material": 1,
          "mode": 4
        }
      ]
    },
    {
      "name": "Panel_Door_inside_0",
      "primitives": [
        {
          "attributes": {
            "NORMAL": 17,
            "POSITION": 16,
            "TEXCOORD_0": 18
          },
          "indices": 19,
          "material": 0,
          "mode": 4
        }
      ]
    },
    {
      "name": "Panel_Door_outside_0",
      "primitives": [
        {
          "attributes": {
            "NORMAL": 21,
            "POSITION": 20,
            "TEXCOORD_0": 22
          },
          "indices": 23,
          "material": 1,
          "mode": 4
        }
      ]
    },
    {
      "name": "Handle_Handle_inside_0",
      "primitives": [
        {
          "attributes": {
            "NORMAL": 25,
            "POSITION": 24
          },
          "indices": 26,
          "material": 2,
          "mode": 4
        }
      ]
    }
  ],
  "nodes": [
    {
      "children": [
        1
      ],
      "name": "RootNode (gltf orientation matrix)",
      "rotation": [
        -0.70710678118654746,
        -0,
        -0,
        0.70710678118654757
      ]
    },
    {
      "children": [
        2
      ],
      "name": "RootNode (model correction matrix)"
    },
    {
      "children": [
        3
      ],
      "matrix": [
        1,
        0,
        0,
        0,
        0,
        0,
        1,
        0,
        0,
        -1,
        0,
        0,
        0,
        0,
        0,
        1
      ],
      "name": "3b7f747ccc8d430584567e9cccbad84e.fbx"
    },
    {
      "children": [
        4
      ],
      "name": "RootNode"
    },
    {
      "children": [
        5,
        6,
        7,
        10
      ],
      "matrix": [
        100,
        0,
        0,
        0,
        0,
        -1.6292067939183141e-05,
        -99.999999999998678,
        0,
        0,
        99.999999999998678,
        -1.6292067939183141e-05,
        0,
        0,
        0,
        0,
        1
      ],
      "name": "Door"
    },
    {
      "mesh": 0,
      "name": "Door_Door_inside_0"
    },
    {
      "mesh": 1,
      "name": "Door_Door_outside_0"
    },
    {
      "children": [
        8,
        9
      ],
      "matrix": [
        0.9528966528744317,
        -0.30329518449969622,
        0,
        0,
        0.30329518449969622,
        0.9528966528744317,
        0,
        0,
        0,
        0,
        1,
        0,
        0.80500000715255737,
        0.14000000059604645,
        -3.3087224502121107e-24,
        1
      ],
      "name": "Panel.001"
    },
    {
      "mesh": 2,
      "name": "Panel.001_Door_inside_0"
    },
    {
      "mesh": 3,
      "name": "Panel.001_Door_outside_0"
    },
    {
      "children": [
        11,
        12,
        13
      ],
      "matrix": [
        0.76049170846829417,
        0.6493476429086158,
        -1.3234889800848446e-23,
        0,
        -0.6493476429086158,
        0.76049170846829417,
        0,
        0,
        1.0065023956036837e-23,
        8.5940444963362159e-24,
        1,
        0,
        -0.80500000715255737,
        0.14000000059604645,
        -3.3087224502121107e-24,
        1
      ],
      "name": "Panel"
    },
    {
      "mesh": 4,
      "name": "Panel_Door_inside_0"
    },
    {
      "mesh": 5,
      "name": "Panel_Door_outside_0"
    },
    {
      "children": [
        14
      ],
      "matrix": [
        1,
        1.1102230246251565e-16,
        1.3234889800848443e-23,
        0,
        -1.1102230246251565e-16,
        1,
        2.646977960169688e-23,
        0,
        -1.323488980084844e-23,
        -2.646977960169688e-23,
        1,
        0,
        0.73500001430511475,
        -5.9604644775390625e-08,
        1.002500057220459,
        1
      ],
      "name": "Handle"
    },
    {
      "mesh": 6,
      "name": "Handle_Handle_inside_0"
    }
  ],
  "scene": 0,
  "scenes": [
    {
      "name": "OSG_Scene",
      "nodes": [
        0
      ]
    }
  ]
}

