{
  "accessors": [
    {
      "bufferView": 2,
      "componentType": 5126,
      "count": 804,
      "max": [
        81.2890625,
        66.252281188964844,
        135.63226318359375
      ],
      "min": [
        -81.289054870605469,
        -65.867927551269531,
        -2.1461553573608398
      ],
      "type": "VEC3"
    },
    {
      "bufferView": 2,
      "byteOffset": 9648,
      "componentType": 5126,
      "count": 804,
      "max": [
        0.9999929666519165,
        0.99994301795959473,
        0.99998146295547485
      ],
      "min": [
        -0.9999929666519165,
        -1,
        -1
      ],
      "type": "VEC3"
    },
    {
      "bufferView": 3,
      "componentType": 5126,
      "count": 804,
      "max": [
        0.98542654514312744,
        0.99998140335083008,
        1,
        1
      ],
      "min": [
        -0.98545777797698975,
        -0.81726771593093872,
        -0.99973684549331665,
        -1
      ],
      "type": "VEC4"
    },
    {
      "bufferView": 1,
      "componentType": 5126,
      "count": 804,
      "max": [
        0.9892769455909729,
        0.9865681529045105
      ],
      "min": [
        0.0094217704609036446,
        0.0094951419159770012
      ],
      "type": "VEC2"
    },
    {
      "bufferView": 1,
      "byteOffset": 6432,
      "componentType": 5126,
      "count": 804,
      "max": [
        0.99906235933303833,
        0.99812942743301392
      ],
      "min": [
        0,
        0
      ],
      "type": "VEC2"
    },
    {
      "bufferView": 1,
      "byteOffset": 12864,
      "componentType": 5126,
      "count": 804,
      "max": [
        0.9892769455909729,
        0.9865681529045105
      ],
      "min": [
        0.0094217704609036446,
        0.0094951419159770012
      ],
      "type": "VEC2"
    },
    {
      "bufferView": 1,
      "byteOffset": 19296,
      "componentType": 5126,
      "count": 804,
      "max": [
        0.9892769455909729,
        0.9865681529045105
      ],
      "min": [
        0.0094217704609036446,
        0.0094951419159770012
      ],
      "type": "VEC2"
    },
    {
      "bufferView": 1,
      "byteOffset": 25728,
      "componentType": 5126,
      "count": 804,
      "max": [
        0.9892769455909729,
        0.9865681529045105
      ],
      "min": [
        0.0094217704609036446,
        0.0094951419159770012
      ],
      "type": "VEC2"
    },
    {
      "bufferView": 0,
      "componentType": 5125,
      "count": 3666,
      "max": [
        803
      ],
      "min": [
        0
      ],
      "type": "SCALAR"
    }
  ],
  "asset": {
    "extras": {
      "author": "tjddn1985 (https://sketchfab.com/tjddn1985)",
      "license": "CC-BY-4.0 (http://creativecommons.org/licenses/by/4.0/)",
      "source": "https://sketchfab.com/3d-models/sofa-single-60e77ca11d414831a2c9b4e934021ec9",
      "title": "Sofa_Single"
    },
    "generator": "Sketchfab-8.20.0",
    "version": "2.0"
  },
  "bufferViews": [
    {
      "buffer": 0,
      "byteLength": 14664,
      "byteOffset": 0,
      "name": "floatBufferViews",
      "target": 34963
    },
    {
      "buffer": 0,
      "byteLength": 32160,
      "byteOffset": 14664,
      "byteStride": 8,
      "name": "floatBufferViews",
      "target": 34962
    },
    {
      "buffer": 0,
      "byteLength": 19296,
      "byteOffset": 46824,
      "byteStride": 12,
      "name": "floatBufferViews",
      "target": 34962
    },
    {
      "buffer": 0,
      "byteLength": 12864,
      "byteOffset": 66120,
      "byteStride": 16,
      "name": "floatBufferViews",
      "target": 34962
    }
  ],
  "buffers": [
    {
      "byteLength": 78984,
      "uri": "scene.bin"
    }
  ],
  "extensionsRequired": [
    "KHR_materials_pbrSpecularGlossiness"
  ],
  "extensionsUsed": [
    "KHR_materials_pbrSpecularGlossiness"
  ],
  "images": [
    {
      "uri": "textures/Sofa020_diffuse.png"
    },
    {
      "uri": "textures/Sofa020_specularGlossiness.png"
    },
    {
      "uri": "textures/Sofa020_normal.png"
    },
    {
      "uri": "textures/Sofa020_occlusion.png"
    }
  ],
  "materials": [
    {
      "doubleSided": true,
      "extensions": {
        "KHR_materials_pbrSpecularGlossiness": {
          "diffuseFactor": [
            1,
            1,
            1,
            1
          ],
          "diffuseTexture": {
            "index": 0,
            "texCoord": 0
          },
          "glossinessFactor": 0.70903201220000001,
          "specularFactor": [
            1,
            1,
            1
          ],
          "specularGlossinessTexture": {
            "index": 1,
            "texCoord": 0
          }
        }
      },
      "name": "Sofa020",
      "normalTexture": {
        "index": 2,
        "scale": 1,
        "texCoord": 0
      },
      "occlusionTexture": {
        "index": 3,
        "strength": 1,
        "texCoord": 0
      }
    }
  ],
  "meshes": [
    {
      "name": "Sofa020_001_Sofa020_0",
      "primitives": [
        {
          "attributes": {
            "NORMAL": 1,
            "POSITION": 0,
            "TANGENT": 2,
            "TEXCOORD_0": 3,
            "TEXCOORD_1": 4,
            "TEXCOORD_2": 5,
            "TEXCOORD_3": 6,
            "TEXCOORD_4": 7
          },
          "indices": 8,
          "material": 0,
          "mode": 4
        }
      ]
    }
  ],
  "nodes": [
    {
      "children": [
        1
      ],
      "name": "RootNode (gltf orientation matrix)",
      "rotation": [
        -0.70710678118654746,
        -0,
        -0,
        0.70710678118654757
      ]
    },
    {
      "children": [
        2
      ],
      "name": "RootNode (model correction matrix)"
    },
    {
      "children": [
        3
      ],
      "matrix": [
        1,
        0,
        0,
        0,
        0,
        0,
        1,
        0,
        0,
        -1,
        0,
        0,
        0,
        0,
        0,
        1
      ],
      "name": "Sofa020.FBX"
    },
    {
      "children": [
        4
      ],
      "name": "RootNode"
    },
    {
      "children": [
        5
      ],
      "matrix": [
        1,
        0,
        0,
        0,
        0,
        0.999999999999999,
        4.3711388286737922e-08,
        0,
        0,
        -4.3711388286737922e-08,
        0.999999999999999,
        0,
        0,
        0,
        0,
        1
      ],
      "name": "Sofa020_001"
    },
    {
      "children": [
        6
      ],
      "matrix": [
        1,
        0,
        0,
        0,
        0,
        6.123233995736766e-17,
        -1,
        0,
        -0,
        1,
        6.123233995736766e-17,
        0,
        0,
        0,
        0,
        1
      ],
      "name": ""
    },
    {
      "mesh": 0,
      "name": "Sofa020_001_Sofa020_0"
    }
  ],
  "samplers": [
    {
      "magFilter": 9729,
      "minFilter": 9987,
      "wrapS": 10497,
      "wrapT": 10497
    }
  ],
  "scene": 0,
  "scenes": [
    {
      "name": "OSG_Scene",
      "nodes": [
        0
      ]
    }
  ],
  "textures": [
    {
      "sampler": 0,
      "source": 0
    },
    {
      "sampler": 0,
      "source": 1
    },
    {
      "sampler": 0,
      "source": 2
    },
    {
      "sampler": 0,
      "source": 3
    }
  ]
}

