{
  "accessors": [
    {
      "bufferView": 2,
      "componentType": 5126,
      "count": 65532,
      "max": [
        5.1967458724975586,
        3.9120769500732422,
        4.5160160064697266
      ],
      "min": [
        -8.1298799514770508,
        -9.2546167373657227,
        -5.9935169219970703
      ],
      "type": "VEC3"
    },
    {
      "bufferView": 2,
      "byteOffset": 786384,
      "componentType": 5126,
      "count": 65532,
      "max": [
        0.99999374151229858,
        0.99982774257659912,
        0.99997645616531372
      ],
      "min": [
        -0.99999874830245972,
        -0.99998164176940918,
        -0.99996489286422729
      ],
      "type": "VEC3"
    },
    {
      "bufferView": 1,
      "componentType": 5126,
      "count": 65532,
      "max": [
        0.99926799535751343,
        0.99926400184631348
      ],
      "min": [
        0.00073199998587369919,
        0.00073600001633167267
      ],
      "type": "VEC2"
    },
    {
      "bufferView": 0,
      "componentType": 5125,
      "count": 339147,
      "max": [
        65531
      ],
      "min": [
        0
      ],
      "type": "SCALAR"
    },
    {
      "bufferView": 2,
      "byteOffset": 1572768,
      "componentType": 5126,
      "count": 65532,
      "max": [
        2.7757530212402344,
        3.5683090686798096,
        2.5573689937591553
      ],
      "min": [
        -5.5828189849853516,
        -18.414281845092773,
        -7.4230618476867676
      ],
      "type": "VEC3"
    },
    {
      "bufferView": 2,
      "byteOffset": 2359152,
      "componentType": 5126,
      "count": 65532,
      "max": [
        0.99999374151229858,
        0.99999213218688965,
        0.99998390674591064
      ],
      "min": [
        -0.99994677305221558,
        -0.99994778633117676,
        -0.9999617338180542
      ],
      "type": "VEC3"
    },
    {
      "bufferView": 1,
      "byteOffset": 524256,
      "componentType": 5126,
      "count": 65532,
      "max": [
        0.99926799535751343,
        0.99926400184631348
      ],
      "min": [
        0.00073199998587369919,
        0.0012919999426230788
      ],
      "type": "VEC2"
    },
    {
      "bufferView": 0,
      "byteOffset": 1356588,
      "componentType": 5125,
      "count": 350190,
      "max": [
        65531
      ],
      "min": [
        0
      ],
      "type": "SCALAR"
    },
    {
      "bufferView": 2,
      "byteOffset": 3145536,
      "componentType": 5126,
      "count": 65532,
      "max": [
        3.7896230220794678,
        -1.8081179857254028,
        4.3474512100219727
      ],
      "min": [
        -4.5841398239135742,
        -16.474197387695312,
        -6.2371649742126465
      ],
      "type": "VEC3"
    },
    {
      "bufferView": 2,
      "byteOffset": 3931920,
      "componentType": 5126,
      "count": 65532,
      "max": [
        0.99999552965164185,
        0.99998313188552856,
        0.99999511241912842
      ],
      "min": [
        -0.99999338388442993,
        -0.99991422891616821,
        -0.99999266862869263
      ],
      "type": "VEC3"
    },
    {
      "bufferView": 1,
      "byteOffset": 1048512,
      "componentType": 5126,
      "count": 65532,
      "max": [
        0.99926799535751343,
        0.99914199113845825
      ],
      "min": [
        0.00073199998587369919,
        0.00073600001633167267
      ],
      "type": "VEC2"
    },
    {
      "bufferView": 0,
      "byteOffset": 2757348,
      "componentType": 5125,
      "count": 340950,
      "max": [
        65531
      ],
      "min": [
        0
      ],
      "type": "SCALAR"
    },
    {
      "bufferView": 2,
      "byteOffset": 4718304,
      "componentType": 5126,
      "count": 65532,
      "max": [
        3.8354880809783936,
        3.9119288921356201,
        4.5670690536499023
      ],
      "min": [
        -7.8320279121398926,
        -13.912442207336426,
        -2.8881130218505859
      ],
      "type": "VEC3"
    },
    {
      "bufferView": 2,
      "byteOffset": 5504688,
      "componentType": 5126,
      "count": 65532,
      "max": [
        0.99997985363006592,
        0.99991422891616821,
        0.99999487400054932
      ],
      "min": [
        -1,
        -0.99997812509536743,
        -0.99999165534973145
      ],
      "type": "VEC3"
    },
    {
      "bufferView": 1,
      "byteOffset": 1572768,
      "componentType": 5126,
      "count": 65532,
      "max": [
        0.99926799535751343,
        0.99926400184631348
      ],
      "min": [
        0.00073199998587369919,
        0.0029420000500977039
      ],
      "type": "VEC2"
    },
    {
      "bufferView": 0,
      "byteOffset": 4121148,
      "componentType": 5125,
      "count": 344427,
      "max": [
        65531
      ],
      "min": [
        0
      ],
      "type": "SCALAR"
    },
    {
      "bufferView": 2,
      "byteOffset": 6291072,
      "componentType": 5126,
      "count": 65532,
      "max": [
        3.7810349464416504,
        3.6971569061279297,
        4.1714382171630859
      ],
      "min": [
        -8.1432514190673828,
        -19.763343811035156,
        -6.0318479537963867
      ],
      "type": "VEC3"
    },
    {
      "bufferView": 2,
      "byteOffset": 7077456,
      "componentType": 5126,
      "count": 65532,
      "max": [
        0.99999874830245972,
        0.98643726110458374,
        0.99998664855957031
      ],
      "min": [
        -0.99997174739837646,
        -0.99995988607406616,
        -0.99999964237213135
      ],
      "type": "VEC3"
    },
    {
      "bufferView": 1,
      "byteOffset": 2097024,
      "componentType": 5126,
      "count": 65532,
      "max": [
        0.99926799535751343,
        0.9988970160484314
      ],
      "min": [
        0.00073199998587369919,
        0.00073600001633167267
      ],
      "type": "VEC2"
    },
    {
      "bufferView": 0,
      "byteOffset": 5498856,
      "componentType": 5125,
      "count": 343968,
      "max": [
        65531
      ],
      "min": [
        0
      ],
      "type": "SCALAR"
    },
    {
      "bufferView": 2,
      "byteOffset": 7863840,
      "componentType": 5126,
      "count": 11478,
      "max": [
        3.1014640331268311,
        4.0088357925415039,
        6.5858678817749023
      ],
      "min": [
        -2.4221189022064209,
        -19.757822036743164,
        -0.4657990038394928
      ],
      "type": "VEC3"
    },
    {
      "bufferView": 2,
      "byteOffset": 8001576,
      "componentType": 5126,
      "count": 11478,
      "max": [
        0.99990254640579224,
        0.85073858499526978,
        0.99996346235275269
      ],
      "min": [
        -0.99977314472198486,
        -0.99947088956832886,
        -0.98607486486434937
      ],
      "type": "VEC3"
    },
    {
      "bufferView": 1,
      "byteOffset": 2621280,
      "componentType": 5126,
      "count": 11478,
      "max": [
        0.99853497743606567,
        0.9982839822769165
      ],
      "min": [
        0.00073199998587369919,
        0.00073600001633167267
      ],
      "type": "VEC2"
    },
    {
      "bufferView": 0,
      "byteOffset": 6874728,
      "componentType": 5125,
      "count": 55263,
      "max": [
        11477
      ],
      "min": [
        0
      ],
      "type": "SCALAR"
    }
  ],
  "asset": {
    "extras": {
      "author": "Geoffrey Marchal (https://sketchfab.com/geoffreymarchal)",
      "license": "CC-BY-NC-4.0 (http://creativecommons.org/licenses/by-nc/4.0/)",
      "source": "https://sketchfab.com/3d-models/saint-mary-of-antioch-5b67f830b0114099a6d6fbdad59d9d69",
      "title": "Saint Mary of Antioch"
    },
    "generator": "Sketchfab-8.53.0",
    "version": "2.0"
  },
  "bufferViews": [
    {
      "buffer": 0,
      "byteLength": 7095780,
      "byteOffset": 0,
      "name": "floatBufferViews",
      "target": 34963
    },
    {
      "buffer": 0,
      "byteLength": 2713104,
      "byteOffset": 7095780,
      "byteStride": 8,
      "name": "floatBufferViews",
      "target": 34962
    },
    {
      "buffer": 0,
      "byteLength": 8139312,
      "byteOffset": 9808884,
      "byteStride": 12,
      "name": "floatBufferViews",
      "target": 34962
    }
  ],
  "buffers": [
    {
      "byteLength": 17948196,
      "uri": "scene.bin"
    }
  ],
  "images": [
    {
      "uri": "textures/Material_0_baseColor.jpeg"
    }
  ],
  "materials": [
    {
      "doubleSided": true,
      "name": "Material_0",
      "pbrMetallicRoughness": {
        "baseColorFactor": [
          1,
          1,
          1,
          1
        ],
        "baseColorTexture": {
          "index": 0,
          "texCoord": 0
        },
        "metallicFactor": 0,
        "roughnessFactor": 1
      }
    }
  ],
  "meshes": [
    {
      "primitives": [
        {
          "attributes": {
            "NORMAL": 1,
            "POSITION": 0,
            "TEXCOORD_0": 2
          },
          "indices": 3,
          "material": 0,
          "mode": 4
        }
      ]
    },
    {
      "primitives": [
        {
          "attributes": {
            "NORMAL": 5,
            "POSITION": 4,
            "TEXCOORD_0": 6
          },
          "indices": 7,
          "material": 0,
          "mode": 4
        }
      ]
    },
    {
      "primitives": [
        {
          "attributes": {
            "NORMAL": 9,
            "POSITION": 8,
            "TEXCOORD_0": 10
          },
          "indices": 11,
          "material": 0,
          "mode": 4
        }
      ]
    },
    {
      "primitives": [
        {
          "attributes": {
            "NORMAL": 13,
            "POSITION": 12,
            "TEXCOORD_0": 14
          },
          "indices": 15,
          "material": 0,
          "mode": 4
        }
      ]
    },
    {
      "primitives": [
        {
          "attributes": {
            "NORMAL": 17,
            "POSITION": 16,
            "TEXCOORD_0": 18
          },
          "indices": 19,
          "material": 0,
          "mode": 4
        }
      ]
    },
    {
      "primitives": [
        {
          "attributes": {
            "NORMAL": 21,
            "POSITION": 20,
            "TEXCOORD_0": 22
          },
          "indices": 23,
          "material": 0,
          "mode": 4
        }
      ]
    }
  ],
  "nodes": [
    {
      "children": [
        1
      ],
      "name": "RootNode (gltf orientation matrix)",
      "rotation": [
        -0.70710678118654746,
        -0,
        -0,
        0.70710678118654757
      ]
    },
    {
      "children": [
        2
      ],
      "matrix": [
        0.64478808641433716,
        -0.76436138153076172,
        5.5511151231257827e-17,
        0,
        2.2204460492503131e-16,
        1.1102230246251565e-16,
        -1,
        0,
        0.76436138153076172,
        0.64478808641433716,
        2.4980018054066022e-16,
        0,
        -0.20335784554481506,
        -8.7335119247436523,
        -8.2959175109863281,
        1
      ],
      "name": "RootNode (model correction matrix)"
    },
    {
      "children": [
        3,
        4,
        5,
        6,
        7,
        8
      ],
      "name": "marie tournai.obj.cleaner.materialmerger.gles"
    },
    {
      "mesh": 0,
      "name": ""
    },
    {
      "mesh": 1,
      "name": ""
    },
    {
      "mesh": 2,
      "name": ""
    },
    {
      "mesh": 3,
      "name": ""
    },
    {
      "mesh": 4,
      "name": ""
    },
    {
      "mesh": 5,
      "name": ""
    }
  ],
  "samplers": [
    {
      "magFilter": 9729,
      "minFilter": 9987,
      "wrapS": 10497,
      "wrapT": 10497
    }
  ],
  "scene": 0,
  "scenes": [
    {
      "name": "OSG_Scene",
      "nodes": [
        0
      ]
    }
  ],
  "textures": [
    {
      "sampler": 0,
      "source": 0
    }
  ]
}

