{
  "accessors": [
    {
      "bufferView": 2,
      "componentType": 5126,
      "count": 8235,
      "max": [
        37.701465606689453,
        15.241598129272461,
        184.57135009765625
      ],
      "min": [
        -37.764530181884766,
        -18.120231628417969,
        21.192781448364258
      ],
      "type": "VEC3"
    },
    {
      "bufferView": 2,
      "byteOffset": 98820,
      "componentType": 5126,
      "count": 8235,
      "max": [
        1,
        1,
        1
      ],
      "min": [
        -1,
        -1,
        -1
      ],
      "type": "VEC3"
    },
    {
      "bufferView": 3,
      "componentType": 5126,
      "count": 8235,
      "max": [
        1,
        1,
        1,
        1
      ],
      "min": [
        -1,
        -1,
        -1,
        1
      ],
      "type": "VEC4"
    },
    {
      "bufferView": 1,
      "componentType": 5126,
      "count": 8235,
      "max": [
        0.98705291748046875,
        0.98335409164428711
      ],
      "min": [
        0.014668473042547703,
        0.014668473042547703
      ],
      "type": "VEC2"
    },
    {
      "bufferView": 1,
      "byteOffset": 65880,
      "componentType": 5126,
      "count": 8235,
      "max": [
        0.98319137096405029,
        0.99231445789337158
      ],
      "min": [
        0.0076854736544191837,
        0.0076854736544191837
      ],
      "type": "VEC2"
    },
    {
      "bufferView": 0,
      "componentType": 5125,
      "count": 17016,
      "max": [
        8234
      ],
      "min": [
        0
      ],
      "type": "SCALAR"
    },
    {
      "bufferView": 2,
      "byteOffset": 197640,
      "componentType": 5126,
      "count": 802,
      "max": [
        46.000007629394531,
        19.311332702636719,
        208.00288391113281
      ],
      "min": [
        -46.000007629394531,
        -19.222944259643555,
        0.00287669338285923
      ],
      "type": "VEC3"
    },
    {
      "bufferView": 2,
      "byteOffset": 207264,
      "componentType": 5126,
      "count": 802,
      "max": [
        1,
        1,
        1
      ],
      "min": [
        -1,
        -1,
        -1
      ],
      "type": "VEC3"
    },
    {
      "bufferView": 3,
      "byteOffset": 131760,
      "componentType": 5126,
      "count": 802,
      "max": [
        1,
        1,
        0.51418286561965942,
        1
      ],
      "min": [
        -1,
        -1,
        -0.74916428327560425,
        1
      ],
      "type": "VEC4"
    },
    {
      "bufferView": 1,
      "byteOffset": 131760,
      "componentType": 5126,
      "count": 802,
      "max": [
        0.97426009178161621,
        0.96554875373840332
      ],
      "min": [
        0.0086198151111602783,
        0.0086198151111602783
      ],
      "type": "VEC2"
    },
    {
      "bufferView": 0,
      "byteOffset": 68064,
      "componentType": 5125,
      "count": 2028,
      "max": [
        801
      ],
      "min": [
        0
      ],
      "type": "SCALAR"
    }
  ],
  "asset": {
    "extras": {
      "author": "Brandon Westlake (https://sketchfab.com/dr.badass2142)",
      "license": "CC-BY-4.0 (http://creativecommons.org/licenses/by/4.0/)",
      "source": "https://sketchfab.com/3d-models/dusty-old-bookshelf-free-6c5ac2547db34c3c81b2e4808b000386",
      "title": "Dusty Old Bookshelf (FREE)"
    },
    "generator": "Sketchfab-5.54.1",
    "version": "2.0"
  },
  "bufferViews": [
    {
      "buffer": 0,
      "byteLength": 76176,
      "byteOffset": 0,
      "name": "floatBufferViews",
      "target": 34963
    },
    {
      "buffer": 0,
      "byteLength": 138176,
      "byteOffset": 76176,
      "byteStride": 8,
      "name": "floatBufferViews",
      "target": 34962
    },
    {
      "buffer": 0,
      "byteLength": 216888,
      "byteOffset": 214352,
      "byteStride": 12,
      "name": "floatBufferViews",
      "target": 34962
    },
    {
      "buffer": 0,
      "byteLength": 144592,
      "byteOffset": 431240,
      "byteStride": 16,
      "name": "floatBufferViews",
      "target": 34962
    }
  ],
  "buffers": [
    {
      "byteLength": 575832,
      "uri": "scene.bin"
    }
  ],
  "images": [
    {
      "uri": "textures/dusty_bookshelf_books_Mat_baseColor.png"
    },
    {
      "uri": "textures/dusty_bookshelf_books_Mat_metallicRoughness.png"
    },
    {
      "uri": "textures/dusty_bookshelf_books_Mat_normal.png"
    },
    {
      "uri": "textures/dusty_bookshelf_Mat_baseColor.png"
    },
    {
      "uri": "textures/dusty_bookshelf_Mat_metallicRoughness.png"
    },
    {
      "uri": "textures/dusty_bookshelf_Mat_normal.png"
    }
  ],
  "materials": [
    {
      "doubleSided": true,
      "name": "dusty_bookshelf_books_Mat",
      "normalTexture": {
        "index": 2,
        "scale": 1,
        "texCoord": 0
      },
      "occlusionTexture": {
        "index": 1,
        "strength": 1,
        "texCoord": 0
      },
      "pbrMetallicRoughness": {
        "baseColorFactor": [
          1,
          1,
          1,
          1
        ],
        "baseColorTexture": {
          "index": 0,
          "texCoord": 0
        },
        "metallicFactor": 1,
        "metallicRoughnessTexture": {
          "index": 1,
          "texCoord": 0
        },
        "roughnessFactor": 1
      }
    },
    {
      "alphaMode": "BLEND",
      "doubleSided": true,
      "name": "dusty_bookshelf_Mat",
      "normalTexture": {
        "index": 5,
        "scale": 1,
        "texCoord": 0
      },
      "occlusionTexture": {
        "index": 4,
        "strength": 1,
        "texCoord": 0
      },
      "pbrMetallicRoughness": {
        "baseColorFactor": [
          1,
          1,
          1,
          1
        ],
        "baseColorTexture": {
          "index": 3,
          "texCoord": 0
        },
        "metallicFactor": 1,
        "metallicRoughnessTexture": {
          "index": 4,
          "texCoord": 0
        },
        "roughnessFactor": 1
      }
    }
  ],
  "meshes": [
    {
      "name": "Old_Dusty_Bookshelf_Books_dusty_bookshelf_books_Mat_0",
      "primitives": [
        {
          "attributes": {
            "NORMAL": 1,
            "POSITION": 0,
            "TANGENT": 2,
            "TEXCOORD_0": 3,
            "TEXCOORD_1": 4
          },
          "indices": 5,
          "material": 0,
          "mode": 4
        }
      ]
    },
    {
      "name": "Old_Dusty_Bookshelf_dusty_bookshelf_Mat_0",
      "primitives": [
        {
          "attributes": {
            "NORMAL": 7,
            "POSITION": 6,
            "TANGENT": 8,
            "TEXCOORD_0": 9
          },
          "indices": 10,
          "material": 1,
          "mode": 4
        }
      ]
    }
  ],
  "nodes": [
    {
      "children": [
        1
      ],
      "name": "RootNode (gltf orientation matrix)",
      "rotation": [
        -0.70710678118654746,
        -0,
        -0,
        0.70710678118654757
      ]
    },
    {
      "children": [
        2
      ],
      "name": "RootNode (model correction matrix)"
    },
    {
      "children": [
        3
      ],
      "matrix": [
        1,
        0,
        0,
        0,
        0,
        0,
        1,
        0,
        0,
        -1,
        0,
        0,
        0,
        0,
        0,
        1
      ],
      "name": "685d1f8703f14f26ba616216bbcb4bae.fbx"
    },
    {
      "children": [
        4,
        6
      ],
      "name": "RootNode"
    },
    {
      "children": [
        5
      ],
      "matrix": [
        1,
        0,
        0,
        0,
        0,
        -1.6292067939183141e-07,
        -0.99999999999998679,
        0,
        0,
        0.99999999999998679,
        -1.6292067939183141e-07,
        0,
        0,
        0,
        0,
        1
      ],
      "name": "Old_Dusty_Bookshelf_Books"
    },
    {
      "mesh": 0,
      "name": "Old_Dusty_Bookshelf_Books_dusty_bookshelf_books_Mat_0"
    },
    {
      "children": [
        7
      ],
      "matrix": [
        1,
        0,
        0,
        0,
        0,
        -1.6292067939183141e-07,
        -0.99999999999998679,
        0,
        0,
        0.99999999999998679,
        -1.6292067939183141e-07,
        0,
        0,
        0,
        0,
        1
      ],
      "name": "Old_Dusty_Bookshelf"
    },
    {
      "mesh": 1,
      "name": "Old_Dusty_Bookshelf_dusty_bookshelf_Mat_0"
    }
  ],
  "samplers": [
    {
      "magFilter": 9729,
      "minFilter": 9987,
      "wrapS": 10497,
      "wrapT": 10497
    }
  ],
  "scene": 0,
  "scenes": [
    {
      "name": "OSG_Scene",
      "nodes": [
        0
      ]
    }
  ],
  "textures": [
    {
      "sampler": 0,
      "source": 0
    },
    {
      "sampler": 0,
      "source": 1
    },
    {
      "sampler": 0,
      "source": 2
    },
    {
      "sampler": 0,
      "source": 3
    },
    {
      "sampler": 0,
      "source": 4
    },
    {
      "sampler": 0,
      "source": 5
    }
  ]
}

