{
  "accessors": [
    {
      "bufferView": 2,
      "componentType": 5126,
      "count": 65532,
      "max": [
        3.9068584442138672,
        -26.215293884277344,
        7.0626444816589355
      ],
      "min": [
        -8.4567575454711914,
        -48.851646423339844,
        -5.0096607208251953
      ],
      "type": "VEC3"
    },
    {
      "bufferView": 2,
      "byteOffset": 786384,
      "componentType": 5126,
      "count": 65532,
      "max": [
        0.99987435340881348,
        0.99993658065795898,
        0.99998670816421509
      ],
      "min": [
        -0.99999797344207764,
        -0.99926239252090454,
        -0.99999701976776123
      ],
      "type": "VEC3"
    },
    {
      "bufferView": 3,
      "componentType": 5126,
      "count": 65532,
      "max": [
        1,
        0.99999994039535522,
        0.9996381402015686,
        1
      ],
      "min": [
        -0.99999994039535522,
        -1,
        -0.99994111061096191,
        -1
      ],
      "type": "VEC4"
    },
    {
      "bufferView": 3,
      "byteOffset": 1048512,
      "componentType": 5126,
      "count": 65532,
      "max": [
        0.85490196943283081,
        0.88627451658248901,
        0.90196079015731812,
        1
      ],
      "min": [
        0.058823529630899429,
        0.043137256056070328,
        0.023529412224888802,
        1
      ],
      "type": "VEC4"
    },
    {
      "bufferView": 1,
      "componentType": 5126,
      "count": 65532,
      "max": [
        0.99975597858428955,
        0.40600600838661194
      ],
      "min": [
        0.00024399999529123306,
        0.00024399999529123306
      ],
      "type": "VEC2"
    },
    {
      "bufferView": 0,
      "componentType": 5125,
      "count": 255426,
      "max": [
        65531
      ],
      "min": [
        0
      ],
      "type": "SCALAR"
    },
    {
      "bufferView": 2,
      "byteOffset": 1572768,
      "componentType": 5126,
      "count": 65532,
      "max": [
        5.4434370994567871,
        -21.604087829589844,
        6.4930801391601562
      ],
      "min": [
        -5.6116137504577637,
        -39.175746917724609,
        -5.806513786315918
      ],
      "type": "VEC3"
    },
    {
      "bufferView": 2,
      "byteOffset": 2359152,
      "componentType": 5126,
      "count": 65532,
      "max": [
        0.9999995231628418,
        0.99990886449813843,
        0.99999749660491943
      ],
      "min": [
        -0.99998605251312256,
        -0.99982011318206787,
        -0.99998176097869873
      ],
      "type": "VEC3"
    },
    {
      "bufferView": 3,
      "byteOffset": 2097024,
      "componentType": 5126,
      "count": 65532,
      "max": [
        0.99999988079071045,
        1,
        0.99969613552093506,
        -1
      ],
      "min": [
        -1,
        -0.99999988079071045,
        -0.999947190284729,
        -1
      ],
      "type": "VEC4"
    },
    {
      "bufferView": 3,
      "byteOffset": 3145536,
      "componentType": 5126,
      "count": 65532,
      "max": [
        0.7764706015586853,
        0.76470589637756348,
        0.80000001192092896,
        1
      ],
      "min": [
        0.043137256056070328,
        0.0078431377187371254,
        0,
        1
      ],
      "type": "VEC4"
    },
    {
      "bufferView": 1,
      "byteOffset": 524256,
      "componentType": 5126,
      "count": 65532,
      "max": [
        0.99975597858428955,
        0.41764900088310242
      ],
      "min": [
        0.00024399999529123306,
        0.00024399999529123306
      ],
      "type": "VEC2"
    },
    {
      "bufferView": 0,
      "byteOffset": 1021704,
      "componentType": 5125,
      "count": 270675,
      "max": [
        65531
      ],
      "min": [
        0
      ],
      "type": "SCALAR"
    },
    {
      "bufferView": 2,
      "byteOffset": 3145536,
      "componentType": 5126,
      "count": 65532,
      "max": [
        6.0208735466003418,
        -10.83131217956543,
        10.527168273925781
      ],
      "min": [
        -10.189118385314941,
        -38.290077209472656,
        -8.8598995208740234
      ],
      "type": "VEC3"
    },
    {
      "bufferView": 2,
      "byteOffset": 3931920,
      "componentType": 5126,
      "count": 65532,
      "max": [
        0.99999773502349854,
        0.99999403953552246,
        0.99999362230300903
      ],
      "min": [
        -0.99999016523361206,
        -0.99983632564544678,
        -0.99998176097869873
      ],
      "type": "VEC3"
    },
    {
      "bufferView": 3,
      "byteOffset": 4194048,
      "componentType": 5126,
      "count": 65532,
      "max": [
        0.99999982118606567,
        1,
        0.99999666213989258,
        -1
      ],
      "min": [
        -1,
        -0.9999997615814209,
        -0.99993026256561279,
        -1
      ],
      "type": "VEC4"
    },
    {
      "bufferView": 3,
      "byteOffset": 5242560,
      "componentType": 5126,
      "count": 65532,
      "max": [
        0.7607843279838562,
        0.75686275959014893,
        0.76470589637756348,
        1
      ],
      "min": [
        0.027450980618596077,
        0.0078431377187371254,
        0,
        1
      ],
      "type": "VEC4"
    },
    {
      "bufferView": 1,
      "byteOffset": 1048512,
      "componentType": 5126,
      "count": 65532,
      "max": [
        0.99975597858428955,
        0.46752899885177612
      ],
      "min": [
        0.00024399999529123306,
        0.00024399999529123306
      ],
      "type": "VEC2"
    },
    {
      "bufferView": 0,
      "byteOffset": 2104404,
      "componentType": 5125,
      "count": 258786,
      "max": [
        65531
      ],
      "min": [
        0
      ],
      "type": "SCALAR"
    },
    {
      "bufferView": 2,
      "byteOffset": 4718304,
      "componentType": 5126,
      "count": 65532,
      "max": [
        5.7302570343017578,
        -10.829407691955566,
        10.530727386474609
      ],
      "min": [
        -10.295356750488281,
        -40.022285461425781,
        -9.1372356414794922
      ],
      "type": "VEC3"
    },
    {
      "bufferView": 2,
      "byteOffset": 5504688,
      "componentType": 5126,
      "count": 65532,
      "max": [
        0.99999773502349854,
        0.99998986721038818,
        0.99995183944702148
      ],
      "min": [
        -0.9998658299446106,
        -0.99999064207077026,
        -0.9999011754989624
      ],
      "type": "VEC3"
    },
    {
      "bufferView": 3,
      "byteOffset": 6291072,
      "componentType": 5126,
      "count": 65532,
      "max": [
        0.99999988079071045,
        1,
        0.99987912178039551,
        -1
      ],
      "min": [
        -1,
        -0.9999995231628418,
        -0.99980878829956055,
        -1
      ],
      "type": "VEC4"
    },
    {
      "bufferView": 3,
      "byteOffset": 7339584,
      "componentType": 5126,
      "count": 65532,
      "max": [
        0.81176471710205078,
        0.80000001192092896,
        0.83529412746429443,
        1
      ],
      "min": [
        0,
        0,
        0,
        1
      ],
      "type": "VEC4"
    },
    {
      "bufferView": 1,
      "byteOffset": 1572768,
      "componentType": 5126,
      "count": 65532,
      "max": [
        0.99975597858428955,
        0.53100597858428955
      ],
      "min": [
        0.00024399999529123306,
        0.00024399999529123306
      ],
      "type": "VEC2"
    },
    {
      "bufferView": 0,
      "byteOffset": 3139548,
      "componentType": 5125,
      "count": 250038,
      "max": [
        65531
      ],
      "min": [
        0
      ],
      "type": "SCALAR"
    },
    {
      "bufferView": 2,
      "byteOffset": 6291072,
      "componentType": 5126,
      "count": 65532,
      "max": [
        5.5419349670410156,
        -10.928993225097656,
        8.7593441009521484
      ],
      "min": [
        -10.271889686584473,
        -38.968437194824219,
        -9.1281051635742188
      ],
      "type": "VEC3"
    },
    {
      "bufferView": 2,
      "byteOffset": 7077456,
      "componentType": 5126,
      "count": 65532,
      "max": [
        0.99999833106994629,
        0.99994570016860962,
        0.9999433159828186
      ],
      "min": [
        -0.99999016523361206,
        -0.99999064207077026,
        -0.99997544288635254
      ],
      "type": "VEC3"
    },
    {
      "bufferView": 3,
      "byteOffset": 8388096,
      "componentType": 5126,
      "count": 65532,
      "max": [
        1,
        1,
        0.999531090259552,
        1
      ],
      "min": [
        -0.99999964237213135,
        -1,
        -0.99993318319320679,
        -1
      ],
      "type": "VEC4"
    },
    {
      "bufferView": 3,
      "byteOffset": 9436608,
      "componentType": 5126,
      "count": 65532,
      "max": [
        0.7607843279838562,
        0.7607843279838562,
        0.76862746477127075,
        1
      ],
      "min": [
        0.027450980618596077,
        0.019607843831181526,
        0,
        1
      ],
      "type": "VEC4"
    },
    {
      "bufferView": 1,
      "byteOffset": 2097024,
      "componentType": 5126,
      "count": 65532,
      "max": [
        0.99975597858428955,
        0.52716797590255737
      ],
      "min": [
        0.00024399999529123306,
        0.00024399999529123306
      ],
      "type": "VEC2"
    },
    {
      "bufferView": 0,
      "byteOffset": 4139700,
      "componentType": 5125,
      "count": 239832,
      "max": [
        65531
      ],
      "min": [
        0
      ],
      "type": "SCALAR"
    },
    {
      "bufferView": 2,
      "byteOffset": 7863840,
      "componentType": 5126,
      "count": 65108,
      "max": [
        4.7807188034057617,
        -16.801918029785156,
        6.9314999580383301
      ],
      "min": [
        -9.6544275283813477,
        -39.803569793701172,
        -8.1050662994384766
      ],
      "type": "VEC3"
    },
    {
      "bufferView": 2,
      "byteOffset": 8645136,
      "componentType": 5126,
      "count": 65108,
      "max": [
        0.99995839595794678,
        0.99970906972885132,
        0.99996352195739746
      ],
      "min": [
        -0.99999797344207764,
        -0.99996435642242432,
        -0.99998503923416138
      ],
      "type": "VEC3"
    },
    {
      "bufferView": 3,
      "byteOffset": 10485120,
      "componentType": 5126,
      "count": 65108,
      "max": [
        0.99999988079071045,
        0.99999982118606567,
        0.99994999170303345,
        -1
      ],
      "min": [
        -0.99999994039535522,
        -1,
        -0.9999995231628418,
        -1
      ],
      "type": "VEC4"
    },
    {
      "bufferView": 3,
      "byteOffset": 11526848,
      "componentType": 5126,
      "count": 65108,
      "max": [
        0.67843139171600342,
        0.67450982332229614,
        0.67058825492858887,
        1
      ],
      "min": [
        0,
        0,
        0,
        1
      ],
      "type": "VEC4"
    },
    {
      "bufferView": 1,
      "byteOffset": 2621280,
      "componentType": 5126,
      "count": 65108,
      "max": [
        0.99975597858428955,
        0.42089998722076416
      ],
      "min": [
        0.00024399999529123306,
        0.00024399999529123306
      ],
      "type": "VEC2"
    },
    {
      "bufferView": 0,
      "byteOffset": 5099028,
      "componentType": 5125,
      "count": 225243,
      "max": [
        65107
      ],
      "min": [
        0
      ],
      "type": "SCALAR"
    }
  ],
  "asset": {
    "extras": {
      "author": "Geoffrey Marchal (https://sketchfab.com/geoffreymarchal)",
      "license": "CC-BY-NC-4.0 (http://creativecommons.org/licenses/by-nc/4.0/)",
      "source": "https://sketchfab.com/3d-models/scene-of-the-deluge-c59d7f54ed274e1f9c4caf8641980968",
      "title": "Scene of the deluge"
    },
    "generator": "Sketchfab-6.3.0",
    "version": "2.0"
  },
  "bufferViews": [
    {
      "buffer": 0,
      "byteLength": 6000000,
      "byteOffset": 0,
      "name": "floatBufferViews",
      "target": 34963
    },
    {
      "buffer": 0,
      "byteLength": 3142144,
      "byteOffset": 6000000,
      "byteStride": 8,
      "name": "floatBufferViews",
      "target": 34962
    },
    {
      "buffer": 0,
      "byteLength": 9426432,
      "byteOffset": 9142144,
      "byteStride": 12,
      "name": "floatBufferViews",
      "target": 34962
    },
    {
      "buffer": 0,
      "byteLength": 12568576,
      "byteOffset": 18568576,
      "byteStride": 16,
      "name": "floatBufferViews",
      "target": 34962
    }
  ],
  "buffers": [
    {
      "byteLength": 31137152,
      "uri": "scene.bin"
    }
  ],
  "images": [
    {
      "uri": "textures/deluge_-_LowPoly_Material_u1_v1_baseColor.jpeg"
    }
  ],
  "materials": [
    {
      "doubleSided": true,
      "name": "deluge_-_LowPoly_Material_u1_v1",
      "pbrMetallicRoughness": {
        "baseColorFactor": [
          1,
          1,
          1,
          1
        ],
        "baseColorTexture": {
          "index": 0,
          "texCoord": 0
        },
        "metallicFactor": 0,
        "roughnessFactor": 1
      }
    }
  ],
  "meshes": [
    {
      "primitives": [
        {
          "attributes": {
            "COLOR_0": 3,
            "NORMAL": 1,
            "POSITION": 0,
            "TANGENT": 2,
            "TEXCOORD_0": 4
          },
          "indices": 5,
          "material": 0,
          "mode": 4
        }
      ]
    },
    {
      "primitives": [
        {
          "attributes": {
            "COLOR_0": 9,
            "NORMAL": 7,
            "POSITION": 6,
            "TANGENT": 8,
            "TEXCOORD_0": 10
          },
          "indices": 11,
          "material": 0,
          "mode": 4
        }
      ]
    },
    {
      "primitives": [
        {
          "attributes": {
            "COLOR_0": 15,
            "NORMAL": 13,
            "POSITION": 12,
            "TANGENT": 14,
            "TEXCOORD_0": 16
          },
          "indices": 17,
          "material": 0,
          "mode": 4
        }
      ]
    },
    {
      "primitives": [
        {
          "attributes": {
            "COLOR_0": 21,
            "NORMAL": 19,
            "POSITION": 18,
            "TANGENT": 20,
            "TEXCOORD_0": 22
          },
          "indices": 23,
          "material": 0,
          "mode": 4
        }
      ]
    },
    {
      "primitives": [
        {
          "attributes": {
            "COLOR_0": 27,
            "NORMAL": 25,
            "POSITION": 24,
            "TANGENT": 26,
            "TEXCOORD_0": 28
          },
          "indices": 29,
          "material": 0,
          "mode": 4
        }
      ]
    },
    {
      "primitives": [
        {
          "attributes": {
            "COLOR_0": 33,
            "NORMAL": 31,
            "POSITION": 30,
            "TANGENT": 32,
            "TEXCOORD_0": 34
          },
          "indices": 35,
          "material": 0,
          "mode": 4
        }
      ]
    }
  ],
  "nodes": [
    {
      "children": [
        1
      ],
      "name": "RootNode (gltf orientation matrix)",
      "rotation": [
        -0.70710678118654746,
        -0,
        -0,
        0.70710678118654757
      ]
    },
    {
      "children": [
        2
      ],
      "matrix": [
        0.28038510680198669,
        -0.95947909355163574,
        -0.028000857681035995,
        0,
        0.011410856619477272,
        0.032500628381967545,
        -0.99940657615661621,
        0,
        0.95981979370117188,
        0.27989920973777771,
        0.020061170682311058,
        0,
        -1.8662625551223755,
        -31.116474151611328,
        -29.199987411499023,
        1
      ],
      "name": "RootNode (model correction matrix)"
    },
    {
      "children": [
        3,
        4,
        5,
        6,
        7,
        8
      ],
      "name": "deluge_-_LowPoly.obj.cleaner.materialmerger.gles"
    },
    {
      "mesh": 0,
      "name": ""
    },
    {
      "mesh": 1,
      "name": ""
    },
    {
      "mesh": 2,
      "name": ""
    },
    {
      "mesh": 3,
      "name": ""
    },
    {
      "mesh": 4,
      "name": ""
    },
    {
      "mesh": 5,
      "name": ""
    }
  ],
  "samplers": [
    {
      "magFilter": 9729,
      "minFilter": 9987,
      "wrapS": 10497,
      "wrapT": 10497
    }
  ],
  "scene": 0,
  "scenes": [
    {
      "name": "OSG_Scene",
      "nodes": [
        0
      ]
    }
  ],
  "textures": [
    {
      "sampler": 0,
      "source": 0
    }
  ]
}

