{"asset":{"version":"2.0","generator":"THREE.JS GLTFExporter"},"scenes":[{"nodes":[0],"name":"AuxScene"}],"scene":0,"nodes":[{"mesh":0}],"meshes":[{"primitives":[{"mode":4,"attributes":{"POSITION":0,"NORMAL":1},"material":0}]}],"materials":[{"pbrMetallicRoughness":{"baseColorFactor":[0.5019607843137255,0.5019607843137255,0.5019607843137255,1],"metallicFactor":0,"roughnessFactor":1}}],"accessors":[{"bufferView":0,"componentType":5126,"count":2118,"max":[19.455108642578125,20.700000762939453,19.01300048828125],"min":[-40.04489517211914,-2.5,-40.48699951171875],"type":"VEC3"},{"bufferView":1,"componentType":5126,"count":2118,"max":[0.9568306803703308,1,0.9778096675872803],"min":[-0.9902676939964294,0.044011469930410385,-0.9394189119338989],"type":"VEC3"}],"bufferViews":[{"buffer":0,"byteOffset":0,"byteLength":25416,"byteStride":12,"target":34962},{"buffer":0,"byteOffset":25416,"byteLength":25416,"byteStride":12,"target":34962}],"buffers":[{"byteLength":50832,"uri":"data:application/octet-stream;base64,"}]}